C:\Users\Nick\Projects\MRSDeviceOpt\results\experiments\subject02\walk2\expdata\ground_reaction.mot
version=1
nRows=33
nColumns=19
inDegrees=no
endheader
time	ground_force_r_vx	ground_force_r_vy	ground_force_r_vz	ground_force_r_px	ground_force_r_py	ground_force_r_pz	ground_force_l_vx	ground_force_l_vy	ground_force_l_vz	ground_force_l_px	ground_force_l_py	ground_force_l_pz	ground_torque_r_x	ground_torque_r_y	ground_torque_r_z	ground_torque_l_x	ground_torque_l_y	ground_torque_l_z
5.095833	0.542578	4.248973	1.495069	0.000000	0.000000	0.000000	-69.534264	744.688477	46.855774	1.022286	0.000000	-0.545126	0.000000	0.000000	0.000000	-0.000000	4.313821	-0.000000
5.096875	0.530527	4.226655	1.419578	0.000000	0.000000	0.000000	-68.875862	742.105713	46.812099	1.021336	0.000000	-0.545079	0.000000	0.000000	0.000000	-0.000000	4.308590	-0.000000
5.097917	0.518756	4.201939	1.347093	0.000000	0.000000	0.000000	-68.227196	739.551453	46.771912	1.020385	0.000000	-0.545030	0.000000	0.000000	0.000000	-0.000000	4.301229	-0.000000
5.098958	0.507088	4.175482	1.279282	0.000000	0.000000	0.000000	-67.588310	737.028137	46.734070	1.019432	0.000000	-0.544981	0.000000	0.000000	0.000000	-0.000000	4.291673	-0.000000
5.100000	0.495205	4.147871	1.217660	0.000000	0.000000	0.000000	-66.958672	734.537598	46.697235	1.018478	0.000000	-0.544930	0.000000	0.000000	0.000000	-0.000000	4.279872	-0.000000
5.101042	0.482663	4.119581	1.163502	0.000000	0.000000	0.000000	-66.337158	732.080750	46.659863	1.017521	0.000000	-0.544879	0.000000	0.000000	0.000000	-0.000000	4.265790	-0.000000
5.102083	0.468933	4.090942	1.117762	0.000000	0.000000	0.000000	-65.722031	729.657776	46.620228	1.016563	0.000000	-0.544826	0.000000	0.000000	0.000000	-0.000000	4.249402	-0.000000
5.103125	0.453445	4.062125	1.081022	0.000000	0.000000	0.000000	-65.111061	727.268311	46.576458	1.015602	0.000000	-0.544773	0.000000	0.000000	0.000000	-0.000000	4.230696	-0.000000
5.104167	0.435636	4.033132	1.053441	0.000000	0.000000	0.000000	-64.501549	724.911377	46.526543	1.014639	0.000000	-0.544718	0.000000	0.000000	0.000000	-0.000000	4.209673	-0.000000
5.105208	0.415000	4.003801	1.034736	0.000000	0.000000	0.000000	-63.890484	722.585571	46.468372	1.013672	0.000000	-0.544662	0.000000	0.000000	0.000000	-0.000000	4.186348	-0.000000
5.106250	0.391137	3.973828	1.024181	0.000000	0.000000	0.000000	-63.274673	720.289429	46.399773	1.012703	0.000000	-0.544605	0.000000	0.000000	0.000000	-0.000000	4.160748	-0.000000
5.107292	0.363798	3.942791	1.020634	0.000000	0.000000	0.000000	-62.650898	718.021118	46.318550	1.011731	0.000000	-0.544547	0.000000	0.000000	0.000000	-0.000000	4.132913	-0.000000
5.108333	0.332916	3.910191	1.022577	0.000000	0.000000	0.000000	-62.016060	715.778931	46.222542	1.010755	0.000000	-0.544488	0.000000	0.000000	0.000000	-0.000000	4.102890	-0.000000
5.109375	0.298629	3.875490	1.028191	0.000000	0.000000	0.000000	-61.367352	713.561340	46.109661	1.009775	0.000000	-0.544428	0.000000	0.000000	0.000000	-0.000000	4.070744	-0.000000
5.110417	0.261290	3.838168	1.035436	0.000000	0.000000	0.000000	-60.702385	711.367126	45.977959	1.008792	0.000000	-0.544367	0.000000	0.000000	0.000000	-0.000000	4.036545	-0.000000
5.111458	0.221460	3.797760	1.042153	0.000000	0.000000	0.000000	-60.019318	709.195313	45.825680	1.007806	0.000000	-0.544304	0.000000	0.000000	0.000000	-0.000000	4.000375	-0.000000
5.112500	0.179884	3.753909	1.046174	0.000000	0.000000	0.000000	-59.316944	707.045410	45.651306	1.006815	0.000000	-0.544241	0.000000	0.000000	0.000000	-0.000000	3.962324	-0.000000
5.113542	0.137465	3.706406	1.045431	0.000000	0.000000	0.000000	-58.594753	704.917297	45.453625	1.005821	0.000000	-0.544177	0.000000	0.000000	0.000000	-0.000000	3.922490	-0.000000
5.114583	0.095209	3.655218	1.038071	0.000000	0.000000	0.000000	-57.852966	702.811462	45.231762	1.004823	0.000000	-0.544112	0.000000	0.000000	0.000000	-0.000000	3.880978	-0.000000
5.115625	0.054181	3.600512	1.022550	0.000000	0.000000	0.000000	-57.092514	700.728638	44.985233	1.003821	0.000000	-0.544046	0.000000	0.000000	0.000000	-0.000000	3.837899	-0.000000
5.116667	0.015440	3.542663	0.997728	0.000000	0.000000	0.000000	-56.315014	698.669983	44.713966	1.002815	0.000000	-0.543979	0.000000	0.000000	0.000000	-0.000000	3.793370	-0.000000
5.117708	-0.020013	3.482248	0.962935	0.000000	0.000000	0.000000	-55.522682	696.636902	44.418320	1.001805	0.000000	-0.543912	0.000000	0.000000	0.000000	-0.000000	3.747510	-0.000000
5.118750	-0.051292	3.420028	0.918017	0.000000	0.000000	0.000000	-54.718250	694.631042	44.099083	1.000792	0.000000	-0.543844	0.000000	0.000000	0.000000	-0.000000	3.700443	-0.000000
5.119792	-0.077672	3.356918	0.863360	0.000000	0.000000	0.000000	-53.904839	692.653992	43.757488	0.999776	0.000000	-0.543776	0.000000	0.000000	0.000000	-0.000000	3.652293	-0.000000
5.120833	-0.098623	3.293947	0.799886	0.000000	0.000000	0.000000	-53.085823	690.707397	43.395176	0.998756	0.000000	-0.543707	0.000000	0.000000	0.000000	-0.000000	3.603189	-0.000000
5.121875	-0.113836	3.232216	0.729015	0.000000	0.000000	0.000000	-52.264702	688.792664	43.014168	0.997734	0.000000	-0.543638	0.000000	0.000000	0.000000	-0.000000	3.553257	-0.000000
5.122917	-0.123235	3.172843	0.652615	0.000000	0.000000	0.000000	-51.444950	686.910889	42.616825	0.996709	0.000000	-0.543568	0.000000	0.000000	0.000000	-0.000000	3.502622	-0.000000
5.123958	-0.126968	3.116921	0.572914	0.000000	0.000000	0.000000	-50.629860	685.062744	42.205799	0.995681	0.000000	-0.543499	0.000000	0.000000	0.000000	-0.000000	3.451409	-0.000000
5.125000	-0.125402	3.065475	0.492400	0.000000	0.000000	0.000000	-49.822445	683.248474	41.783955	0.994651	0.000000	-0.543429	0.000000	0.000000	0.000000	-0.000000	3.399742	-0.000000
5.126042	-0.119091	3.019424	0.413709	0.000000	0.000000	0.000000	-49.025299	681.467773	41.354324	0.993619	0.000000	-0.543360	0.000000	0.000000	0.000000	-0.000000	3.347739	-0.000000
5.127083	-0.108748	2.979552	0.339494	0.000000	0.000000	0.000000	-48.240520	679.719849	40.920029	0.992586	0.000000	-0.543291	0.000000	0.000000	0.000000	-0.000000	3.295517	-0.000000
5.128125	-0.095204	2.946492	0.272303	0.000000	0.000000	0.000000	-47.469627	678.003174	40.484180	0.991552	0.000000	-0.543222	0.000000	0.000000	0.000000	-0.000000	3.243189	-0.000000
5.129167	-0.079371	2.920717	0.214453	0.000000	0.000000	0.000000	-46.713543	676.315735	40.049843	0.990517	0.000000	-0.543153	0.000000	0.000000	0.000000	-0.000000	3.190860	-0.000000
